<svg
  xmlns="http://www.w3.org/2000/svg"
  xmlns:xlink="http://www.w3.org/1999/xlink"
  viewBox="0 0 653.62 508.4"
>
  <defs>
    <style>
      .animate_1,
      .animate_2,
      .animate_3 {
        transform-box: fill-box;
        transform-origin: center;
      }
      .animate_1 {
        animation: rotate 30s linear infinite;
      }
      .animate_2 {
        animation: rotate 45s linear infinite;
      }
      .animate_3 {
        animation: rotate 15s linear infinite;
      }
      @keyframes rotate {
        100% {
          transform: rotate(360deg);
        }
      }
      .cls-1 {
        isolation: isolate;
      }
      .cls-2 {
        fill: url(#linear-gradient);
      }
      .cls-10,
      .cls-17,
      .cls-3 {
        mix-blend-mode: multiply;
      }
      .cls-3 {
        fill: url(#radial-gradient);
      }
      .cls-11,
      .cls-12,
      .cls-13,
      .cls-29,
      .cls-4,
      .cls-5,
      .cls-8 {
        fill: none;
      }
      .cls-11,
      .cls-12,
      .cls-13,
      .cls-24,
      .cls-29,
      .cls-4,
      .cls-5,
      .cls-8 {
        stroke-miterlimit: 10;
      }
      .cls-11,
      .cls-12,
      .cls-13,
      .cls-4,
      .cls-5,
      .cls-8 {
        stroke-width: 2.27px;
      }
      .cls-4 {
        stroke: url(#linear-gradient-2);
      }
      .cls-5 {
        stroke: url(#linear-gradient-3);
      }
      .cls-6 {
        fill: url(#linear-gradient-4);
      }
      .cls-7 {
        fill: url(#linear-gradient-5);
      }
      .cls-8 {
        stroke: url(#linear-gradient-6);
      }
      .cls-9 {
        fill: url(#linear-gradient-7);
      }
      .cls-10 {
        fill: url(#radial-gradient-2);
      }
      .cls-11 {
        stroke: url(#linear-gradient-8);
      }
      .cls-12 {
        stroke: url(#linear-gradient-9);
      }
      .cls-13 {
        stroke: url(#linear-gradient-10);
      }
      .cls-14 {
        fill: url(#linear-gradient-11);
      }
      .cls-15 {
        fill: url(#linear-gradient-12);
      }
      .cls-16 {
        fill: url(#linear-gradient-13);
      }
      .cls-17 {
        fill: url(#radial-gradient-3);
      }
      .cls-18 {
        fill: url(#linear-gradient-14);
      }
      .cls-19 {
        fill: url(#linear-gradient-15);
      }
      .cls-20 {
        fill: url(#linear-gradient-16);
      }
      .cls-21 {
        fill: url(#linear-gradient-17);
      }
      .cls-22 {
        fill: url(#linear-gradient-18);
      }
      .cls-23 {
        font-size: 14px;
        font-family: Lato-Regular, Lato;
      }
      .cls-23,
      .cls-25 {
        fill: #fff;
      }
      .cls-24 {
        fill: #239045;
        stroke-width: 3.2px;
      }
      .cls-24,
      .cls-29 {
        stroke: #fff;
      }
      .cls-26,
      .cls-27 {
        font-size: 6.14px;
      }
      .cls-26,
      .cls-27,
      .cls-28 {
        fill: #204935;
        font-family: Lato-Light, Lato;
        font-weight: 300;
      }
      .cls-27 {
        letter-spacing: 0em;
      }
      .cls-28 {
        font-size: 4.23px;
      }
      .cls-29 {
        stroke-width: 1.59px;
      }
    </style>
    <linearGradient
      id="linear-gradient"
      x1="110.2"
      y1="204.58"
      x2="190.79"
      y2="285.18"
      gradientTransform="translate(274.54 -11.2) rotate(56.76)"
      gradientUnits="userSpaceOnUse"
    >
      <stop offset="0" stop-color="#056095" />
      <stop offset="1" stop-color="#054367" />
    </linearGradient>
    <radialGradient
      id="radial-gradient"
      cx="154.55"
      cy="249.37"
      r="80.34"
      gradientTransform="matrix(0.98, 0.2, -0.2, 0.98, 56.4, -21.83)"
      gradientUnits="userSpaceOnUse"
    >
      <stop offset="0.4" stop-color="#fff" />
      <stop offset="0.62" stop-color="#fdfefe" />
      <stop offset="0.7" stop-color="#f6f8fa" />
      <stop offset="0.76" stop-color="#ebf0f3" />
      <stop offset="0.81" stop-color="#dae3e8" />
      <stop offset="0.85" stop-color="#c4d2db" />
      <stop offset="0.88" stop-color="#a8beca" />
      <stop offset="0.92" stop-color="#88a5b7" />
      <stop offset="0.95" stop-color="#6289a0" />
      <stop offset="0.97" stop-color="#386986" />
      <stop offset="1" stop-color="#0a476a" />
      <stop offset="1" stop-color="#054367" />
    </radialGradient>
    <linearGradient
      id="linear-gradient-2"
      x1="123.48"
      y1="285.06"
      x2="241.31"
      y2="285.06"
      gradientTransform="matrix(0.98, 0.2, -0.2, 0.98, 56.4, -21.83)"
      gradientUnits="userSpaceOnUse"
    >
      <stop offset="0" stop-color="#37b76e" />
      <stop offset="1" stop-color="#088f87" />
    </linearGradient>
    <linearGradient
      id="linear-gradient-3"
      x1="56.64"
      y1="253.18"
      x2="126.25"
      y2="253.18"
      xlink:href="#linear-gradient-2"
    />
    <linearGradient
      id="linear-gradient-4"
      x1="126.32"
      y1="200.99"
      x2="178.2"
      y2="252.88"
      gradientTransform="matrix(0.98, 0.2, -0.2, 0.98, 56.4, -21.83)"
      gradientUnits="userSpaceOnUse"
    >
      <stop offset="0" stop-color="#36b884" />
      <stop offset="1" stop-color="#088f87" />
    </linearGradient>
    <linearGradient
      id="linear-gradient-5"
      x1="139.04"
      y1="213.72"
      x2="159.51"
      y2="234.19"
      xlink:href="#linear-gradient-4"
    />
    <linearGradient
      id="linear-gradient-6"
      x1="77.71"
      y1="295"
      x2="147.32"
      y2="295"
      gradientTransform="translate(480.42 301.3) rotate(130.2)"
      xlink:href="#linear-gradient-2"
    />
    <linearGradient
      id="linear-gradient-7"
      x1="351.91"
      y1="160.24"
      x2="511.47"
      y2="319.8"
      gradientTransform="translate(-53.36 117.18) rotate(-15.26)"
      xlink:href="#linear-gradient"
    />
    <radialGradient
      id="radial-gradient-2"
      cx="439.72"
      cy="248.91"
      r="159.06"
      gradientTransform="translate(-53.08 118.9) rotate(-15.26)"
      xlink:href="#radial-gradient"
    />
    <linearGradient
      id="linear-gradient-8"
      x1="379.32"
      y1="319.78"
      x2="610.36"
      y2="319.78"
      gradientTransform="translate(-53.08 118.9) rotate(-15.26)"
      xlink:href="#linear-gradient-2"
    />
    <linearGradient
      id="linear-gradient-9"
      x1="246.99"
      y1="256.44"
      x2="381.65"
      y2="256.44"
      gradientTransform="translate(-53.08 118.9) rotate(-15.26)"
      xlink:href="#linear-gradient-2"
    />
    <linearGradient
      id="linear-gradient-10"
      x1="321.46"
      y1="125.82"
      x2="616.9"
      y2="125.82"
      gradientTransform="translate(-53.08 118.9) rotate(-15.26)"
      xlink:href="#linear-gradient-2"
    />
    <linearGradient
      id="linear-gradient-11"
      x1="381.64"
      y1="147.6"
      x2="484.37"
      y2="250.32"
      gradientTransform="matrix(1, 0, 0, 1, 0, 0)"
      xlink:href="#linear-gradient-4"
    />
    <linearGradient
      id="linear-gradient-12"
      x1="406.84"
      y1="172.79"
      x2="447.36"
      y2="213.31"
      gradientTransform="matrix(1, 0, 0, 1, 0, 0)"
      xlink:href="#linear-gradient-4"
    />
    <linearGradient
      id="linear-gradient-13"
      x1="382.66"
      y1="324.42"
      x2="463.26"
      y2="405.02"
      gradientTransform="matrix(0.6, 0.8, -0.8, 0.6, 458.6, -189.88)"
      xlink:href="#linear-gradient"
    />
    <radialGradient
      id="radial-gradient-3"
      cx="427.01"
      cy="369.21"
      r="80.34"
      gradientTransform="translate(55.78 -51.85) rotate(7.83)"
      xlink:href="#radial-gradient"
    />
    <linearGradient
      id="linear-gradient-14"
      x1="417.27"
      y1="460.24"
      x2="489.71"
      y2="385.3"
      gradientTransform="translate(55.78 -51.85) rotate(7.83)"
      xlink:href="#linear-gradient-2"
    />
    <linearGradient
      id="linear-gradient-15"
      x1="333"
      y1="310.61"
      x2="379.84"
      y2="418.64"
      gradientTransform="translate(55.78 -51.85) rotate(7.83)"
      xlink:href="#linear-gradient-2"
    />
    <linearGradient
      id="linear-gradient-16"
      x1="406.89"
      y1="265.5"
      x2="475.58"
      y2="347.3"
      gradientTransform="translate(55.78 -51.85) rotate(7.83)"
      xlink:href="#linear-gradient-2"
    />
    <linearGradient
      id="linear-gradient-17"
      x1="400.44"
      y1="303.41"
      x2="452.33"
      y2="355.29"
      gradientTransform="matrix(1, 0, 0, 1, 0, 0)"
      xlink:href="#linear-gradient-4"
    />
    <linearGradient
      id="linear-gradient-18"
      x1="-237.83"
      y1="-341.98"
      x2="1414.56"
      y2="1310.42"
      gradientTransform="matrix(1, 0, 0, 1, 0, 0)"
      xlink:href="#linear-gradient-4"
    />
  </defs>
  <g class="cls-1">
    <g id="Layer_1" data-name="Layer 1">
      <g class="animate_1">
        <circle
          class="cls-2"
          cx="152.64"
          cy="246.8"
          r="75.79"
          transform="translate(-129.81 180.22) rotate(-45)"
        />
        <circle class="cls-3" cx="152.64" cy="247.01" r="76.35" />
        <path
          class="cls-4"
          d="M243.34,256.41a6.44,6.44,0,0,0-3.51-6.45l-11.43-5.77A75.88,75.88,0,0,1,137.19,321l2.62-12.58a3.27,3.27,0,0,0-5-3.4l-21.08,13.81a3.27,3.27,0,0,0-.94,4.53l13.81,21.07a3.26,3.26,0,0,0,5.93-1.12l1.51-7.22a91.14,91.14,0,0,0,107.87-70.7C242.55,262.39,243,259.39,243.34,256.41Z"
        />
        <path
          class="cls-5"
          d="M78.44,231.35A75.48,75.48,0,0,1,96,196.49l7.78,6.95a3.52,3.52,0,0,0,5.85-2.82l-1.38-24.33a3.51,3.51,0,0,0-3.71-3.31l-24.32,1.38A3.52,3.52,0,0,0,78,180.49l6.43,5.73a91.23,91.23,0,0,0,11.5,132,6.46,6.46,0,0,0,7.53.34l10.27-6.74A75.82,75.82,0,0,1,78.44,231.35Z"
        />
        <polygon
          class="cls-6"
          points="155.39 225.46 155.37 225.57 155.28 225.5 155.39 225.46"
        />
        <polygon
          class="cls-7"
          points="155.39 225.46 155.37 225.57 155.28 225.5 155.39 225.46"
        />
        <path
          class="cls-8"
          d="M201.75,189.22a75.54,75.54,0,0,1,22.32,32l-9.82,3.53a3.52,3.52,0,0,0-.3,6.49L236,241.61a3.51,3.51,0,0,0,4.67-1.68l10.38-22.05a3.51,3.51,0,0,0-4.37-4.8L238.57,216A91.29,91.29,0,0,0,169,157.33a91.69,91.69,0,0,0-52,5.89,6.44,6.44,0,0,0-3.88,6.46l1,12.25A75.82,75.82,0,0,1,201.75,189.22Z"
        />
      </g>
      <g class="animate_2">
        <circle class="cls-9" cx="422.59" cy="233.01" r="150.03" />
        <circle class="cls-10" cx="423.06" cy="235.09" r="151.16" />
        <path
          class="cls-11"
          d="M591.46,170.09a12.75,12.75,0,0,0-12-8.23l-25.36.11a150.15,150.15,0,0,1-91.77,217.49l-6.69-24.53a6.47,6.47,0,0,0-11.86-1.51l-24.75,43.32a6.46,6.46,0,0,0,2.41,8.83l43.32,24.75a6.47,6.47,0,0,0,9.45-7.33l-3.84-14.08A180.48,180.48,0,0,0,597.05,187.2Q594.65,178.43,591.46,170.09Z"
        />
        <path
          class="cls-12"
          d="M278.12,274.21a149.46,149.46,0,0,1-.49-77.23l20,5.26A7,7,0,0,0,305.39,192l-24.31-41.67a7,7,0,0,0-9.52-2.5L229.9,172.15a7,7,0,0,0,1.73,12.73l16.5,4.34A180.7,180.7,0,0,0,295.76,363a181.48,181.48,0,0,0,91.41,48.77,12.77,12.77,0,0,0,13.58-6.19l12.06-21.12A150.1,150.1,0,0,1,278.12,274.21Z"
        />
        <path
          class="cls-13"
          d="M568.44,87.35l-18.71,18.88a180.62,180.62,0,0,0-263.28,10.18,12.75,12.75,0,0,0-1.34,14.75l12.36,21.19a150.05,150.05,0,0,1,230.78-24.44l-13.68,13.8a5.24,5.24,0,0,0,3.75,8.92l54.11-.24a5.24,5.24,0,0,0,5.21-5.26L577.39,91A5.23,5.23,0,0,0,568.44,87.35Z"
        />
        <polygon
          class="cls-14"
          points="423.22 189.01 423.22 189.23 423.01 189.12 423.22 189.01"
        />
        <polygon
          class="cls-15"
          points="423.22 189.01 423.22 189.23 423.01 189.12 423.22 189.01"
        />
      </g>
      <g class="animate_3">
        <circle
          class="cls-16"
          cx="423.81"
          cy="365.38"
          r="75.79"
          transform="translate(-134.23 406.7) rotate(-45)"
        />
        <circle class="cls-17" cx="423.83" cy="365.59" r="76.35" />
        <path
          class="cls-18"
          d="M515,368.75a6.47,6.47,0,0,0-3.94-6.2l-11.81-5a75.84,75.84,0,0,1-85.72,82.88l1.75-12.73a3.27,3.27,0,0,0-5.22-3.05l-20.08,15.23a3.27,3.27,0,0,0-.63,4.58l15.23,20.08a3.27,3.27,0,0,0,5.84-1.53l1-7.31a91.16,91.16,0,0,0,102.77-77.92C514.58,374.77,514.84,371.75,515,368.75Z"
        />
        <path
          class="cls-19"
          d="M348.73,355.06a75.44,75.44,0,0,1,15.07-36l8.24,6.4a3.51,3.51,0,0,0,5.64-3.22l-3-24.17a3.51,3.51,0,0,0-3.92-3l-24.18,3a3.51,3.51,0,0,0-1.71,6.26l6.8,5.28a91.23,91.23,0,0,0,20.52,131,6.46,6.46,0,0,0,7.54-.18l9.79-7.42A75.81,75.81,0,0,1,348.73,355.06Z"
        />
        <path
          class="cls-20"
          d="M520.65,325.75l-12.44,5.06a91.22,91.22,0,0,0-124.35-47.42,6.42,6.42,0,0,0-3.54,6.58l1.54,12.3a75.79,75.79,0,0,1,112.08,34.36l-9.09,3.7a2.65,2.65,0,0,0,0,4.89L510,355.82a2.65,2.65,0,0,0,3.47-1.41l10.6-25.19A2.64,2.64,0,0,0,520.65,325.75Z"
        />
        <polygon
          class="cls-21"
          points="421.44 324.33 421.44 324.44 421.34 324.38 421.44 324.33"
        />
      </g>
      <polygon
        class="cls-22"
        points="435.04 323.71 421.44 324.44 421.34 324.38 435.04 323.71"
      />
      <text class="cls-23" transform="translate(368.65 345.56)">
        Reuse &amp; Recycle
      </text>
      <text class="cls-23" transform="translate(371.11 388.79)">
        PLA Applications
      </text>
      <text class="cls-23" transform="translate(474.71 251.65)">PLA Resin</text>
      <text class="cls-23" transform="translate(462.12 171.89)">Sugarcane</text>
      <text class="cls-23" transform="translate(395.72 123.3)">
        Renewable
        <tspan x="2.23" y="13.59">Resources</tspan>
      </text>
      <text class="cls-23" transform="translate(103.71 255.25)">
        Energy
        <tspan x="0" y="13.59">Recovery</tspan>
      </text>
      <text class="cls-23" transform="translate(299.13 253.36)">
        Composting
      </text>
      <circle class="cls-24" cx="422.49" cy="439.91" r="41.09" />
      <path
        class="cls-25"
        d="M400.29,432.94c.14.1.08.25.08.37v25.5c0,.12.06.27-.08.37Z"
      />
      <path
        class="cls-25"
        d="M441.24,456a15.82,15.82,0,0,1-.29-7.61,24,24,0,0,0,.46-4.86c0-2.46-.05-4.92,0-7.37a6.46,6.46,0,0,0-.45-2.42c-1-2.63-2-5.28-3-7.92a.85.85,0,0,1,.06-.93,1,1,0,0,0,.12-.58c0-1.22,0-2.44,0-3.65,0-.69-.28-.94-1-.94H432c-.71,0-1,.25-1,1,0,1.2,0,2.4,0,3.61a1,1,0,0,0,.13.61.88.88,0,0,1,0,.91c-.89,2.36-1.77,4.73-2.64,7.05,0-1,0-2,0-3a1.4,1.4,0,0,0-1.45-1.36c-1.38,0-2.75,0-4.13,0a1.43,1.43,0,0,0-1.47,1.48c0,1,0,2.06,0,3.09a1.07,1.07,0,0,0,0,.44c.24.47,0,.84-.21,1.23-.09.15-.18.3-.28.5,0-.65,0-1.25,0-1.85s0-1.23,0-1.85a.9.9,0,0,0-1-1c-.63,0-1.26,0-1.89,0a2.81,2.81,0,0,0-2.83,3c.05,1.58,0,3.16,0,4.73,0,.52,0,.54-.55.54h-5.41c-.6,0-.61,0-.61-.6,0-1.66,0-3.32,0-5a2.51,2.51,0,0,0-2.27-2.62,16.31,16.31,0,0,0-3.76,0,2.48,2.48,0,0,0-2.36,2.23v.16a.8.8,0,0,1,0,.43v25.38a.8.8,0,0,1,0,.43v.08a1.67,1.67,0,0,0,1.45,1.52h27.43a2.84,2.84,0,0,1,1.53,0h7.62a3.26,3.26,0,0,0,2.57-1.62A3.83,3.83,0,0,0,441.24,456Zm-8.74-34.58c0-.22.05-.3.29-.3h3.52c.2,0,.28,0,.28.26,0,.73,0,1.47,0,2.2,0,.25-.1.28-.3.27h-1.77c-.57,0-1.14,0-1.72,0-.21,0-.3,0-.3-.28Q432.53,422.45,432.5,421.37Zm-3,13.13q1.71-4.53,3.4-9.07a.31.31,0,0,1,.34-.25h2.65a.32.32,0,0,1,.35.24q1.71,4.6,3.44,9.22a.31.31,0,0,1,0,.12h-10C429.44,434.77,429.4,434.73,429.48,434.5ZM423.19,430c.6,0,1.2,0,1.8,0h1.72c.21,0,.31,0,.31.27,0,.73,0,1.47,0,2.2,0,.21,0,.27-.26.27h-3.56c-.23,0-.28-.07-.28-.29q0-1.08,0-2.16C422.91,430,423,430,423.19,430Zm-2.28,8.6a10.23,10.23,0,0,1,1.23-2.36c.33-.62.69-1.23,1-1.85a.45.45,0,0,1,.47-.28h2.68a.41.41,0,0,1,.44.25c.72,1.32,1.46,2.63,2.18,3.95a6.61,6.61,0,0,1,.81,2.81c0,.52,0,.52-.49.52h-8.06c-.25,0-.37-.05-.33-.32,0,0,0,0,0,0A14.06,14.06,0,0,1,420.91,438.57Zm1.65,5.89c-.6-.13-.58-.56-.69-1l-.06-.19c-.07-.23,0-.33.25-.32h7.25c.31,0,.46.06.44.42,0,.64,0,1.28,0,1.92,0,.29-.07.39-.38.39h-6.16c-.27,0-.32-.09-.3-.32S423,444.55,422.56,444.46Zm-1.43,1.26c.33,0,.43.08.42.41,0,.94,0,.94-.93.94H411c-.3,0-.39-.06-.38-.37,0-1,0-1,1-1Zm-.71-2.33c.06.31.14.61.22.95h-.43c-2.78,0-5.56,0-8.34,0-.33,0-.4-.06-.3-.4.27-1,.25-1,1.24-1,2.36,0,4.73,0,7.09,0C420.24,443,420.37,443.08,420.42,443.39ZM406.12,432a1,1,0,0,1,1,1.13c0,1.21,0,2.41,0,3.61,0,.6,0,1.2,0,1.81,0,.22-.06.29-.29.29-1.06,0-1.06,0-1.06-1v-2.45c0-1,0-2.06,0-3.09C405.8,432.08,405.89,432,406.12,432Zm4.38,27.37h-8c-.69,0-.82-.12-.82-.81V446c0-4.16,0-8.32,0-12.47,0-.94.48-1.59,1.51-1.5.38,0,.9-.13,1.12.07s.08.75.08,1.14c0,1.8,0,3.59,0,5.38a1.51,1.51,0,0,0,1.63,1.63c3.06,0,6.12,0,9.18,0a1.37,1.37,0,0,0,1.54-1.52v-5.26c0-1,.45-1.41,1.42-1.41.33,0,.67,0,1,0s.31.06.31.31c0,1.79,0,3.58,0,5.38,0,1.15,0,2.3,0,3.45,0,.38-.12.44-.46.44-2.51,0-5,0-7.54,0-.61,0-.78.13-.92.71s-.32,1.18-.46,1.78c0,.17-.09.23-.27.25a.68.68,0,0,0-.62.75q0,1.31,0,2.61a.66.66,0,0,0,.55.73c.17,0,.23.12.24.3l1.11,10C411.19,459.41,411.2,459.41,410.5,459.41Zm9.53-4.25c-.15,1.32-.31,2.65-.45,4,0,.21-.08.29-.31.29h-6.41c-.22,0-.29-.05-.31-.28-.28-2.65-.58-5.3-.88-7.95-.09-.8-.17-1.6-.28-2.39,0-.28,0-.33.29-.33h8.74c.31,0,.35.09.32.36C420.49,450.94,420.26,453.05,420,455.16Zm9.71,3c0,.83-.39,1.21-1.23,1.21h-7.26c-.2,0-.3,0-.27-.27.14-1.22.28-2.44.4-3.66,0-.26.22-.15.33-.16h3.85c1.26,0,2.52,0,3.77,0,.36,0,.43.13.42.44C429.73,456.57,429.74,457.38,429.74,458.2Zm-.43-4.27c-1.24,0-2.49,0-3.73,0h-3.72c-.24,0-.32,0-.28-.31.1-.68.16-1.37.23-2.06,0-.26.11-.35.39-.35q3.58,0,7.17,0c.3,0,.39.09.38.39,0,.62,0,1.25,0,1.88C429.77,453.83,429.66,453.94,429.31,453.93Zm.44-4.46c0,.26-.08.35-.34.34h-3.53c-1.17,0-2.33,0-3.49,0-.36,0-.4-.13-.34-.42a2.42,2.42,0,0,0,.06-.47c0-.28.05-.46.38-.54s.43-.39.43-.73c0-.56,0-.56.57-.56,1.93,0,3.85,0,5.77,0,.4,0,.51.11.49.5C429.72,448.21,429.73,448.84,429.75,449.47Zm7.86,9.94H431.4c-.36,0-.52-.05-.35-.46a2.5,2.5,0,0,0,.08-1,23.22,23.22,0,0,0,0-2.36,8.57,8.57,0,0,1,0-2,9,9,0,0,0,0-2.2,7.88,7.88,0,0,1,0-1.88,8.53,8.53,0,0,0,0-2.2,7.05,7.05,0,0,1,0-2c0-.26.09-.33.35-.32h8.13c.22,0,.31,0,.28.29-.12,1.29-.43,2.55-.61,3.83a16.88,16.88,0,0,0,.54,7.24A2.22,2.22,0,0,1,437.61,459.41Zm2.4-16c0,.22-.08.26-.28.26-2.77,0-5.53,0-8.3,0-.26,0-.31-.1-.3-.33a1.73,1.73,0,0,0-.17-.89.2.2,0,0,1,0-.21,4.93,4.93,0,0,0-.2-3.28,11,11,0,0,0-1.1-2.3l-.27-.5h10.41c.18,0,.25,0,.25.24C440,438.72,440,441.06,440,443.4Z"
      />
      <path
        class="cls-25"
        d="M404.44,448.82c0,.52,0,1,0,1.56s-.3.84-.71.83a.73.73,0,0,1-.69-.82c0-1.07,0-2.13,0-3.2a.7.7,0,1,1,1.4,0C404.45,447.72,404.44,448.27,404.44,448.82Z"
      />
      <path
        class="cls-25"
        d="M403,453.58c0-.68.24-1,.72-1s.68.35.68,1c0,.11,0,.22,0,.32a.7.7,0,1,1-1.4,0C403,453.8,403,453.69,403,453.58Z"
      />
      <path
        class="cls-25"
        d="M438.65,447.79a1.05,1.05,0,0,1-.08.35,9.46,9.46,0,0,0,0,6.65,2,2,0,0,1,.09.26.7.7,0,1,1-1.33.42,12.34,12.34,0,0,1-.63-2.46,10.77,10.77,0,0,1,.63-5.39.73.73,0,0,1,.78-.54A.7.7,0,0,1,438.65,447.79Z"
      />
      <path
        class="cls-25"
        d="M436.49,429.91c-.05.42-.22.65-.56.73a.6.6,0,0,1-.74-.33,12.7,12.7,0,0,1-.62-1.54.63.63,0,0,1,.35-.78.59.59,0,0,1,.79.14A7.91,7.91,0,0,1,436.49,429.91Z"
      />
      <path
        class="cls-25"
        d="M436.69,431.34c.35,0,.52.31.65.66s.42.81,0,1.21a.67.67,0,0,1-1.08-.18,3.83,3.83,0,0,1-.33-.81A.7.7,0,0,1,436.69,431.34Z"
      />
      <path
        class="cls-25"
        d="M416,450.51a2.74,2.74,0,1,0,2.81,2.72A2.76,2.76,0,0,0,416,450.51Zm.05,4.1a1.33,1.33,0,0,1-1.34-1.34,1.35,1.35,0,1,1,1.34,1.34Z"
      />
      <circle class="cls-24" cx="559.1" cy="129.79" r="42.1" />
      <path
        class="cls-25"
        d="M570.89,110.84a32.85,32.85,0,0,1,2.87-4.81,12.06,12.06,0,0,1,1.72-2,1.31,1.31,0,0,1,2.16.55,2.86,2.86,0,0,1,.21,1.15,14.49,14.49,0,0,1-.28,3.23c-.11.49.13,1-.3,1.46.22.44-.19.83-.11,1.26a.14.14,0,0,1,0,.09c-.46.78-.27,1.73-.73,2.56A11.61,11.61,0,0,0,576,116a39.71,39.71,0,0,1-2.1,5.15,29.52,29.52,0,0,1-2.34,4,1.38,1.38,0,0,0-.23,1.28.26.26,0,0,0-.16.18,1,1,0,0,1-.46.84,1.11,1.11,0,0,0-.37.9c0,2.65,0,5.31,0,8a1.45,1.45,0,0,0,.37,1,2,2,0,0,1-.07,2.88,1,1,0,0,0-.29.76c0,2.69,0,5.39,0,8.08a1.41,1.41,0,0,0,.39,1,2,2,0,0,1,.35,2.24,1.89,1.89,0,0,1-1.84,1.21c-2.36,0-4.72,0-7.07,0a2,2,0,0,1-1.9-2.23,2.11,2.11,0,0,1,.58-1.31,1.24,1.24,0,0,0,.32-.84v-8.18a.93.93,0,0,0-.31-.7,2.13,2.13,0,0,1-.66-1.66,2.07,2.07,0,0,1,.56-1.21,1.63,1.63,0,0,0,.41-1.13v-7.73a1.35,1.35,0,0,0-.4-1,2,2,0,0,1,0-2.74,1.64,1.64,0,0,0,.44-1.21c0-1,0-2,0-3a.75.75,0,0,1,.41-.77c.65-.29,1.11-.1,1.17.73a17.93,17.93,0,0,1-.07,4,2.35,2.35,0,0,1-.53,1c-.17.21-.38.41-.22.71a.72.72,0,0,0,.71.35h4.33c.64,0,1.27,0,1.9,0a.7.7,0,0,0,.7-.3c.13-.27-.06-.47-.21-.67a3.51,3.51,0,0,1-.63-2.28c0-3.88,0-7.75,0-11.63,0-.12,0-.23,0-.35,0-.32-.14-.35-.39-.21l-.19.11c-1.5.86-3,1.77-4.53,2.54a1.31,1.31,0,0,0-.85,1.49,5.69,5.69,0,0,1-.07,1.84.79.79,0,0,1-.74.67.82.82,0,0,1-.77-.72c0-1.05,0-2.1,0-3.14a1.12,1.12,0,0,1,.6-.87c1.35-.78,2.68-1.6,4.06-2.32.73-.38,1.41-.85,2.12-1.25a1.61,1.61,0,0,1,1.55,0,1.41,1.41,0,0,1,.77,1.28c0,.31-.09.64.15.94.25-.2.25-.5.39-.72Zm4.93-5.14a.28.28,0,0,0-.16.26c-.14.16-.3.31-.43.49a35.33,35.33,0,0,0-2.48,3.91,32.83,32.83,0,0,0-1.84,4.11,5.78,5.78,0,0,0-.59,2.27c0,2.32,0,4.64,0,7a.75.75,0,0,0,0,.3c0,.13.12.08.19,0a.3.3,0,0,0,.16-.26,35.14,35.14,0,0,0,2.48-4.6,31.67,31.67,0,0,0,2-5.42c.17-.69.37-1.38.52-2.08a3.63,3.63,0,0,1,.22-1.17,1.13,1.13,0,0,0,0-1.15.26.26,0,0,0,.25-.18c0-.31,0-.65,0-.93a19.87,19.87,0,0,0,.13-2.31c0-.2.12-.52-.07-.6S576,105.57,575.82,105.7Zm-7,39.7h0c0-1.35,0-2.71,0-4.06,0-.4-.16-.56-.55-.55h-2.57c-.79,0-1.59,0-2.38,0s-.82.17-.79.86c0,.2,0,.41,0,.61,0,2.29,0,4.57,0,6.85a2.5,2.5,0,0,1-.69,1.8c-.18.17-.39.36-.25.68a.68.68,0,0,0,.7.42h6.72c.28,0,.56-.08.64-.37a.74.74,0,0,0-.17-.77,2.24,2.24,0,0,1-.69-1.63C568.87,148,568.86,146.68,568.86,145.4Zm0-12.73h0v-4.06c0-.25,0-.48-.35-.48l-5.39,0c-.38,0-.53.21-.53.55s0,.82,0,1.23c0,2,0,3.95,0,5.92a3.14,3.14,0,0,1-.86,2.53.41.41,0,0,0,0,.59.76.76,0,0,0,.71.35H569c.29,0,.57-.06.66-.34a.72.72,0,0,0-.16-.8,2.41,2.41,0,0,1-.69-1.75C568.86,135.18,568.86,133.92,568.86,132.67Z"
      />
      <path
        class="cls-25"
        d="M547.46,151.88h6.27c.3,0,.64,0,.78-.28s-.06-.55-.25-.8a2.56,2.56,0,0,1-.54-2.17c0-.2,0-.41,0-.61s0-.71.49-.75c.63,0,1,.2,1.08.69a5.17,5.17,0,0,1,0,.88,1.59,1.59,0,0,0,.45,1.28,1.88,1.88,0,0,1,.27,2.17,1.81,1.81,0,0,1-1.8,1.17l-5.66,0c-.22,0-.44,0-.65.05-1.48.12-2.76-.55-2.76-2.32a1.43,1.43,0,0,1,.49-1.09,1.56,1.56,0,0,0,.46-1.26V141a1.19,1.19,0,0,0-.32-.84,2,2,0,0,1,0-2.91c.39-.41.29-.94.33-1.41a10.78,10.78,0,0,0-.81-4.45c-.52-1.45-1.06-2.9-1.44-4.4-.28-1.11-.5-2.24-.68-3.38A27.71,27.71,0,0,1,543,119c0-.83.46-1.42,1.1-1.48a1.7,1.7,0,0,1,1.48.54,24.89,24.89,0,0,1,2.91,4c.17.27.32.56.49.84s.29.29.57.12c1.11-.69,2.24-1.35,3.36-2a1.57,1.57,0,0,1,2.41,1.2c0,.34.06.7.06,1q0,6.48,0,13a1.69,1.69,0,0,0,.42,1.17,2,2,0,0,1-.05,2.72,1.32,1.32,0,0,0-.37,1c0,1.06,0,2.12,0,3.18a.87.87,0,0,1-.31.79.85.85,0,0,1-.88.12.67.67,0,0,1-.39-.68c0-1,0-1.92,0-2.88,0-.57-.09-.66-.68-.66H548.4c-.57,0-.7.12-.7.69l0,7.47a2.66,2.66,0,0,1-.49,1.64c-.49.68-.48.69.09,1.27C547.43,152.1,547.44,152,547.46,151.88Zm-.64-20.8a6.22,6.22,0,0,0,.73,1.86,30.07,30.07,0,0,0,3.38,6,1.45,1.45,0,0,0,.49.43.72.72,0,0,0,.7-.08c.22-.1.13-.35.08-.52a1.27,1.27,0,0,1-.06-.47,13.59,13.59,0,0,0-.29-2.78,40.23,40.23,0,0,0-1.72-6.37,3,3,0,0,1-.37-1.06.27.27,0,0,0-.16-.25l-.37-1-.07-.08a23.48,23.48,0,0,0-1.46-3,24.41,24.41,0,0,0-2.5-3.85c-.21-.27-.46-.52-.71-.79a1.25,1.25,0,0,0-.09.64,23.6,23.6,0,0,0,.41,4.74c.22,1.15.56,2.28.83,3.42a29.08,29.08,0,0,0,1,3A.27.27,0,0,0,546.82,131.08Zm7-1.52h0v-6.85c0-.55,0-.56-.49-.29-1,.58-2,1.18-3,1.73-.57.31-.62.3-.34.86a40,40,0,0,1,2,5c.09.26.22.5.29.76s.16.81.28,1.2a27.13,27.13,0,0,1,.81,3.74,18.62,18.62,0,0,1,.26,3.26.31.31,0,0,0,.34.36c.26,0,.57-.08.67-.35a.7.7,0,0,0-.09-.79,2.63,2.63,0,0,1-.73-2.05C553.85,134,553.84,131.77,553.84,129.56Zm-6.27,7.1a2.24,2.24,0,0,1-.66,1.51.63.63,0,0,0-.2.79.7.7,0,0,0,.78.43,8.27,8.27,0,0,1,1.49-.07c.27,0,.39,0,.18-.32-.44-.66-.84-1.35-1.26-2C547.83,136.86,547.8,136.7,547.57,136.66Z"
      />
      <path
        class="cls-25"
        d="M547.46,151.88c0,.1,0,.22-.19.14S547.34,151.85,547.46,151.88Z"
      />
      <path
        class="cls-25"
        d="M571.15,126.58a.26.26,0,0,1,.16-.18C571.34,126.53,571.25,126.55,571.15,126.58Z"
      />
      <path
        class="cls-25"
        d="M570.89,110.84l-.08.08C570.8,110.86,570.83,110.84,570.89,110.84Z"
      />
      <path
        class="cls-25"
        d="M570.55,124c0-.13,0-.27.16-.26A.3.3,0,0,1,570.55,124Z"
      />
      <path
        class="cls-25"
        d="M549.76,128.06c-.06-.07-.18-.12-.16-.25A.27.27,0,0,1,549.76,128.06Z"
      />
      <path
        class="cls-25"
        d="M546.66,130.91c.07,0,.19,0,.16.17A.27.27,0,0,1,546.66,130.91Z"
      />
      <path class="cls-25" d="M549.23,126.83c-.05,0-.09,0-.07-.08Z" />
      <circle class="cls-24" cx="422.23" cy="289.65" r="39.89" />
      <path class="cls-25" d="M443.28,291.55a.38.38,0,0,1,0-.52Z" />
      <path class="cls-25" d="M443.2,292.35a.58.58,0,0,1,.08-.54v.52Z" />
      <path
        class="cls-25"
        d="M443.28,290.94a10.84,10.84,0,0,0-.7-2c-.76-1.47-1.49-3-2.24-4.45-.35-.7-.71-.81-1.39-.41L430.51,289c-.67.39-.75.72-.38,1.39l2.74,4.94c.06.11.19.21.13.39h-6.52c-.24,0-.3-.07-.29-.29,0-.82,0-1.63,0-2.44a.79.79,0,0,0-1.45-.58c-2.38,2.63-4.78,5.26-7.17,7.89a.79.79,0,0,0-.05,1.2l7.21,9.38a.8.8,0,0,0,1,.38.81.81,0,0,0,.5-.87c0-.54,0-1.08,0-1.61,0-.33.06-.45.42-.44,1.66,0,3.33,0,5,0a4.54,4.54,0,0,0,4-2.36c2.3-3.85,4.47-7.78,6.85-11.59a4.74,4.74,0,0,0,.74-2.06c.09-.17,0-.37.08-.54v-.26a.67.67,0,0,1,0-.52Zm-4.49,6.66q-2.21,3.81-4.43,7.61a3.17,3.17,0,0,1-2.86,1.67c-1.86,0-3.71,0-5.57,0-1.05,0-1.21.16-1.22,1.2v.2l-.1,0-3.41-4.44c-.69-.89-1.36-1.77-2.05-2.65-.12-.15-.17-.25,0-.43,1.82-2,3.62-4,5.43-5.95,0,0,0,0,.14-.08,0,.52,0,1,0,1.48,0,.75.23,1,1,1h13.22C439,297.4,438.86,297.49,438.79,297.6Zm2.48-4.1c-.4.69-.84,1.36-1.25,2a.39.39,0,0,1-.38.21h-4.57a.4.4,0,0,1-.41-.23q-1.44-2.61-2.89-5.2c-.1-.18-.09-.26.1-.37l7.39-4.31c.77,1.57,1.57,3.11,2.28,4.69A3.44,3.44,0,0,1,441.27,293.5Z"
      />
      <path
        class="cls-25"
        d="M409.65,275.71l4.21,2.68,3.6,2.28c.58.37.94.28,1.29-.32l.33-.61c.89-1.59,1.78-3.18,2.7-4.84,1.12,2.11,2.2,4.15,3.29,6.19.12.24.06.32-.14.44L422.47,283c-.4.24-.85.46-.7,1.05s.63.56,1.07.61l10.38,1.17a.84.84,0,0,0,1.07-.57q2.55-5.25,5.09-10.51c.18-.37.28-.74-.07-1.07s-.71-.2-1.08,0c-.87.45-1.76.88-2.62,1.34-.27.14-.38.1-.52-.15-.84-1.46-1.66-2.93-2.55-4.35a4.42,4.42,0,0,0-3.79-2.2c-4.25-.06-8.5-.05-12.75,0a5.17,5.17,0,0,0-4.56,2.65c-.71,1.14-1.41,2.29-2.11,3.44C409,275,409,275.32,409.65,275.71Zm11.17-5.94h7.52a3.38,3.38,0,0,1,3.11,1.79l2.76,4.73c.38.66.68.74,1.35.4L437,276H437c.1.11,0,.2-.05.27-1.24,2.59-2.5,5.18-3.75,7.77-.09.2-.18.32-.45.29l-7.56-.87-.46-.08,1.5-.91c.74-.44.81-.71.4-1.48q-2.85-5.37-5.68-10.75A.73.73,0,0,1,420.82,269.77ZM411,274.46c.59-.93,1.16-1.87,1.74-2.81a3.83,3.83,0,0,1,3.4-1.9h2.61a.4.4,0,0,1,.43.27q.78,1.59,1.59,3.18a.44.44,0,0,1,0,.48c-1,1.71-1.92,3.43-2.86,5.16-.12.21-.19.25-.41.11q-3.18-2.06-6.38-4.06C410.91,274.76,410.87,274.67,411,274.46Z"
      />
      <path
        class="cls-25"
        d="M416.33,290q-2.08-4.53-4.18-9c-.33-.72-.48-.79-1.28-.74l-7.95.5-3.47.23a.72.72,0,0,0-.73.57.77.77,0,0,0,.36.82l.3.19c1,.62,2,1.26,3,1.87.25.15.29.25.15.52-.81,1.59-1.61,3.18-2.38,4.78a5.25,5.25,0,0,0,.2,5.16q3.09,5.38,6.22,10.74a5.35,5.35,0,0,0,4.87,2.82H414c.83,0,1.06-.24,1.06-1.07v-9.88c0-.66-.28-.92-.93-.93h-5.34c0-.09.05-.14.07-.19,1.16-2,2.32-4,3.46-6,.12-.2.22-.2.41-.13l2.75,1.06a.74.74,0,0,0,1-1C416.42,290.15,416.37,290.06,416.33,290Zm-3.11,8c.3,0,.35.1.35.37,0,1.36,0,2.73,0,4.09s0,2.73,0,4.09c0,.29-.07.38-.36.37-.6,0-1.19,0-1.79,0a3.86,3.86,0,0,1-3.46-1.95c-.66-1.09-1.28-2.21-1.92-3.31a.35.35,0,0,1,0-.42c.62-1,1.24-2,1.84-3a.42.42,0,0,1,.42-.23Zm-.61-9.45c-.63-.24-.91-.14-1.25.45l-6,10.46-.23.4c-.16,0-.18-.15-.23-.24l-3.18-5.49a3.89,3.89,0,0,1-.14-3.89c.89-1.77,1.77-3.55,2.65-5.32.38-.76.31-1-.42-1.45l-2-1.21,3.89-.26,4.82-.29c.22,0,.35,0,.46.25,1.08,2.36,2.17,4.7,3.25,7.05a1.71,1.71,0,0,1,.05.18Z"
      />
      <circle class="cls-24" cx="61.58" cy="256.15" r="35.76" />
      <path
        class="cls-25"
        d="M61.6,238.16c0,.28,0,.57,0,.85a.62.62,0,1,1-1.23,0c0-.57,0-1.16,0-1.73a.62.62,0,1,1,1.23,0C61.62,237.57,61.6,237.87,61.6,238.16Z"
      />
      <path
        class="cls-25"
        d="M53.18,241.72c-.08-.07-.3-.16-.4-.33-.32-.49-.62-1-.9-1.53a.61.61,0,0,1,.21-.85.59.59,0,0,1,.84.24c.32.51.63,1,.91,1.57S53.76,241.72,53.18,241.72Z"
      />
      <path
        class="cls-25"
        d="M75.93,263.67l-.43-.17-1.43-.83a.62.62,0,1,1,.62-1.06c.5.28,1,.57,1.5.88a.51.51,0,0,1,.23.7C76.32,263.39,76.09,263.52,75.93,263.67Z"
      />
      <path
        class="cls-25"
        d="M54,267.63c-.09.22-.13.35-.19.46-.27.48-.54,1-.83,1.44a.66.66,0,0,1-.86.28.63.63,0,0,1-.2-.88c.27-.51.56-1,.86-1.5.17-.27.43-.43.72-.28A1.9,1.9,0,0,1,54,267.63Z"
      />
      <path
        class="cls-25"
        d="M48.28,262.2a1.3,1.3,0,0,1-.33.43,17.2,17.2,0,0,1-1.5.87.61.61,0,0,1-.87-.22.59.59,0,0,1,.26-.83c.5-.31,1-.61,1.54-.88S48.27,261.61,48.28,262.2Z"
      />
      <path
        class="cls-25"
        d="M69.46,269.88a1.3,1.3,0,0,1-.43-.33,17.2,17.2,0,0,1-.87-1.5.61.61,0,1,1,1-.62c.31.5.61,1,.88,1.54S70.05,269.86,69.46,269.88Z"
      />
      <path
        class="cls-25"
        d="M68.73,241.72c-.48,0-.8-.48-.62-.83.3-.58.63-1.15,1-1.71a.55.55,0,0,1,.78-.17.56.56,0,0,1,.24.78,18.58,18.58,0,0,1-1,1.67C69.05,241.61,68.82,241.67,68.73,241.72Z"
      />
      <path
        class="cls-25"
        d="M46,245.17a2.54,2.54,0,0,1,.4.12c.53.3,1.06.59,1.57.91a.6.6,0,0,1,.22.84.58.58,0,0,1-.81.21c-.55-.29-1.08-.6-1.61-.93a.52.52,0,0,1-.23-.7A2,2,0,0,1,46,245.17Z"
      />
      <path
        class="cls-25"
        d="M74.23,247.4c-.17-.15-.42-.27-.48-.45a.73.73,0,0,1,.14-.65,13,13,0,0,1,1.81-1,.73.73,0,0,1,.64.25c.1.16.09.59,0,.67-.6.42-1.26.77-1.9,1.14H74.3Z"
      />
      <path
        class="cls-25"
        d="M44.69,255c-.29,0-.59,0-.89,0a.59.59,0,0,1-.59-.63.58.58,0,0,1,.61-.57c.6,0,1.21,0,1.81,0a.59.59,0,0,1,.6.58.59.59,0,0,1-.57.62c-.32,0-.64,0-1,0Z"
      />
      <path
        class="cls-25"
        d="M77.25,253.81c.31,0,.62,0,.93,0a.58.58,0,0,1,.58.6.58.58,0,0,1-.58.6q-.93,0-1.86,0a.6.6,0,0,1,0-1.2c.3,0,.59,0,.89,0Z"
      />
      <path
        class="cls-25"
        d="M73.21,247.94A19.13,19.13,0,0,0,72,246a.61.61,0,1,0-1,.7c.11.18.25.35.37.53a12.36,12.36,0,0,1,1.79,10.35,12.13,12.13,0,0,1-5,7.16A4.13,4.13,0,0,0,66.41,267a.48.48,0,0,1-.37.24c-.45,0-.92,0-1.37.06a.56.56,0,0,0-.36.94,1.13,1.13,0,0,0,.65.25c.42,0,.85,0,1.28,0v.81H55.73v-.81h5.89a1.86,1.86,0,0,0,.52-.07.46.46,0,0,0,.37-.58,1,1,0,0,0-.4-.53,1.08,1.08,0,0,0-.52-.07H56c-.2,0-.38,0-.46-.25a3.78,3.78,0,0,0-1.6-2.12,12.42,12.42,0,0,1-5.36-8.56,12.07,12.07,0,0,1,.6-6.13,12.43,12.43,0,0,1,5.7-6.71,12.27,12.27,0,0,1,10.49-.86,12.91,12.91,0,0,1,3.74,2.15.62.62,0,0,0,.93,0,.61.61,0,0,0-.19-.92c-4.32-3.37-9.07-4.16-14.14-2.08a13.68,13.68,0,0,0-8.38,14.57,13.3,13.3,0,0,0,3.81,7.82c.75.75,1.63,1.37,2.44,2.05a2.3,2.3,0,0,1,.88,1.72c0,1.07,0,2.16,0,3.24a1.91,1.91,0,0,0,.73,1.67.78.78,0,0,1,.39.83c0,.12,0,.25,0,.37a1.94,1.94,0,0,0,1.65,1.91.42.42,0,0,1,.28.22,3,3,0,0,0,2.11,2.05h2.67a3.12,3.12,0,0,0,2.2-2.07.42.42,0,0,1,.29-.2,1.86,1.86,0,0,0,1.58-1.62c.05-.32,0-.65.06-1a.54.54,0,0,1,.18-.36,2,2,0,0,0,.92-1.82c0-.9,0-1.81,0-2.71a2.83,2.83,0,0,1,1.37-2.62A13.77,13.77,0,0,0,73.21,247.94Zm-11.49,29H60.14a1.31,1.31,0,0,1-1.33-1h4.37A1.52,1.52,0,0,1,61.72,276.91Zm3.38-2.71c-.08.34-.38.45-.73.45H57.78c-.77,0-1-.19-1-.95v-.49h8.29A4.67,4.67,0,0,1,65.1,274.2Zm1.16-2.91a.66.66,0,0,1-.66.67c-.22,0-.43,0-.65,0H56.82c-1,0-1.13-.15-1.12-1.12v-.33H66.26C66.26,270.79,66.27,271,66.26,271.29Z"
      />
      <path
        class="cls-25"
        d="M70.62,249.59a1.68,1.68,0,0,0-1.4-1.44,7.08,7.08,0,0,0-1.84,0,7.73,7.73,0,0,0-3,1,.61.61,0,1,0,.56,1.08l.47-.23a7,7,0,0,1,3.21-.72c.49,0,.72.16.77.64A10.06,10.06,0,0,1,69.5,252a8.41,8.41,0,0,1-6.39,7.16,14.57,14.57,0,0,1-1.62.16l-.05-.12c.36-.67.71-1.33,1.08-2a.57.57,0,0,1,.35-.22c.52-.08,1-.13,1.57-.17s.67-.25.67-.6a.62.62,0,0,0-.66-.62h-.74l-.06-.11c.66-.66,1.3-1.36,2-2s1.32-.94,2-1.44a.79.79,0,0,0,.29-.6.72.72,0,0,0-.42-.47.77.77,0,0,0-.6.12c-.77.51-1.53,1-2.31,1.6l0-.07c-.15-.59-.38-.79-.79-.7s-.48.36-.42.93a2,2,0,0,1-.34,1.6c-.75,1-1.39,2-2.07,3l-.23.39c0-.21,0-.31,0-.41a6.89,6.89,0,0,1,.78-3.4,21.21,21.21,0,0,1,1.3-2c.25-.36.27-.71,0-.94s-.63-.21-1,.14l-.08.1a9.6,9.6,0,0,0-2,3.64,7,7,0,0,0,.1,4.6.29.29,0,0,1,0,.15c-.14.44-.29.88-.43,1.31l-.17,0c0-.19,0-.39,0-.58s.06-.32.06-.48A5.5,5.5,0,0,0,58,256.37,6,6,0,0,0,52.72,254c-1,.07-1.56.55-1.61,1.33a5.43,5.43,0,0,0,0,1.21,6.25,6.25,0,0,0,6.76,5.08.48.48,0,0,1,.4.14,2.72,2.72,0,0,1,.51,2.32.63.63,0,0,0,0,.24.59.59,0,0,0,.55.6.57.57,0,0,0,.65-.48c0-.17,0-.35.09-.52.26-1.15.53-2.3.8-3.44l.78.07a8,8,0,0,0,3.78-.92,9.73,9.73,0,0,0,4.72-5.18A8,8,0,0,0,70.62,249.59ZM57,258c-.76-.58-1.54-1.13-2.33-1.66a.62.62,0,0,0-1,.17c-.17.34,0,.67.39.89a9.33,9.33,0,0,1,3.22,2.77,2.46,2.46,0,0,1,.16.24,3.34,3.34,0,0,1-1.73-.21,5,5,0,0,1-3.4-4c-.14-.93-.17-1,.85-1a5.09,5.09,0,0,1,4.63,3.23c0,.12.06.25.12.49A9,9,0,0,0,57,258Z"
      />
      <circle class="cls-24" cx="585.36" cy="268.92" r="42.44" />
      <path
        class="cls-25"
        d="M605.54,271.73c-.34-.18-.38-.33-.28-.69a7.32,7.32,0,0,0-3.87-8.56c-.41-.2-1-.22-1.24-.53s-.12-.91-.2-1.38a7.35,7.35,0,0,0-10.87-5.2.53.53,0,0,1-.76-.08,7.26,7.26,0,0,0-9.7.09.58.58,0,0,1-.65.17,7.17,7.17,0,0,0-3.68,0,7.37,7.37,0,0,0-5.43,7.58.61.61,0,0,1-.26.67A7.26,7.26,0,0,0,567,274.77a.57.57,0,0,1,.14.52,6.65,6.65,0,0,0,0,2.18,7.31,7.31,0,0,0,7.42,6.27,1.12,1.12,0,0,1,.9.4,7.27,7.27,0,0,0,8.61,1.62,7.45,7.45,0,0,0,2.67-2.22,7.29,7.29,0,0,0,10.64-.5c.25-.28.36-.18.57,0a6.66,6.66,0,0,0,5.7,1.54,7,7,0,0,0,5.54-5.62A6.87,6.87,0,0,0,605.54,271.73Zm-15.39-14.85a5.49,5.49,0,0,1,7.93,3.91,6.13,6.13,0,0,1,.1,1,5.53,5.53,0,0,1-2.93,4.84c-.25.15-.39.17-.55-.15a6.74,6.74,0,0,0-3.8-3.37c-.25-.09-.34-.19-.26-.49a7.05,7.05,0,0,0-.65-5.19C589.85,257.12,589.9,257,590.15,256.88Zm-7.95-1.38a9.68,9.68,0,0,1,1.28-.15,5.49,5.49,0,0,1,5.33,6.93.45.45,0,0,1-.5.39,6.73,6.73,0,0,0-3.13.88c-.2.12-.33.17-.55,0a7.08,7.08,0,0,0-6.17-1.65c-.26.05-.31,0-.36-.27A5.54,5.54,0,0,1,582.2,255.5Zm-3.39,8.21a5.35,5.35,0,0,1,4.63,1.22,7,7,0,0,0-1.34,7,8.45,8.45,0,0,0-2.3,0,7.1,7.1,0,0,0-3.14,1.2c-.26.19-.4.15-.61-.05a5.34,5.34,0,0,1-1.44-5.51A5.21,5.21,0,0,1,578.81,263.71Zm-8.12-1.19a5.53,5.53,0,0,1,6-5.32c.34,0,.37.11.22.41a7.14,7.14,0,0,0-.62,4.59c.09.49-.69,1.12-1.18.94a7.08,7.08,0,0,0-4.17-.31C570.58,262.92,570.71,262.67,570.69,262.52Zm-2.78,10.35a5.28,5.28,0,0,1,0-5.79,5.46,5.46,0,0,1,6.06-2.36,7.67,7.67,0,0,0-1.45,4.36c0,.15,0,.24-.2.3A7.43,7.43,0,0,0,567.91,272.87Zm14.61,11.5a5.5,5.5,0,0,1-6.85-3.19c-.07-.18-.13-.37-.21-.55a.93.93,0,0,0-1.14-.52.9.9,0,0,0-.59,1.14c0,.19.1.37.17.61a5.26,5.26,0,0,1-3.54-1.68,5.51,5.51,0,0,1,2-8.88c.33-.13.46-.1.59.27a7.1,7.1,0,0,0,2.4,3.31,1.65,1.65,0,0,0,2,0,5.48,5.48,0,1,1,5.13,9.51Zm1-14.83a5,5,0,0,1,10.05,0,5,5,0,1,1-10.05,0Zm12.65,12a5.5,5.5,0,0,1-8.34.57c-.11-.12-.26-.2-.17-.44a7.27,7.27,0,0,0-.12-5.27,7,7,0,0,0,4-.62,6.29,6.29,0,0,0,1.5-1c.17-.17.28-.19.48,0a6.08,6.08,0,0,0,1.86,1.12.33.33,0,0,1,.22.45,6.55,6.55,0,0,0,.66,4.73A.39.39,0,0,1,596.19,281.51Zm10.92-2.13a5,5,0,1,1-9.22-4,4.09,4.09,0,0,0,.25-.46.88.88,0,0,0-.36-1.12.83.83,0,0,0-1.15.15.42.42,0,0,1-.65.11l-.34-.16a2.54,2.54,0,0,1-1-.73c-.26-.41.22-.72.34-1.08a6.88,6.88,0,0,0,.45-3.17.42.42,0,0,1,.3-.52,7.24,7.24,0,0,0,3.91-4.26c.11-.32.23-.32.48-.24a5.55,5.55,0,0,1,3.28,6.95,1.12,1.12,0,0,1-.31.41.89.89,0,0,0,.35,1.58,6.54,6.54,0,0,1,1.82.84A5.05,5.05,0,0,1,607.11,279.38Z"
      />
      <path
        class="cls-25"
        d="M574.58,278.3a1,1,0,0,1-.91-1,1,1,0,0,1,1-.88.94.94,0,0,1,0,1.87Z"
      />
      <path
        class="cls-25"
        d="M601,272.26a.9.9,0,0,1-.92.94.92.92,0,0,1-.91-.9.91.91,0,0,1,.93-.94A.89.89,0,0,1,601,272.26Z"
      />
      <path
        class="cls-25"
        d="M585.36,269.35a3.21,3.21,0,0,1,3.11-3,1,1,0,0,1,1,.87,1,1,0,0,1-.9,1,1.38,1.38,0,0,0-1.4,1.32c-.08.67-.44,1-1,.95S585.33,270,585.36,269.35Z"
      />
      <path
        class="cls-25"
        d="M583.52,259a1.81,1.81,0,0,0-1.63,1,1,1,0,0,1-.8.61.91.91,0,0,1-.94-1.23,3.68,3.68,0,0,1,4.86-1.92.92.92,0,0,1-.67,1.72A2.12,2.12,0,0,0,583.52,259Z"
      />
      <path
        class="cls-25"
        d="M576.2,268.83a3.63,3.63,0,0,1,3.6-3.41.91.91,0,0,1,.14,1.82c-1.33.22-1.75.64-1.92,1.92a.91.91,0,0,1-1,.84C576.45,269.94,576.16,269.51,576.2,268.83Z"
      />
      <circle class="cls-24" cx="426.67" cy="66.56" r="39.16" />
      <circle class="cls-25" cx="415.12" cy="48.61" r="8.22" />
      <text class="cls-26" transform="translate(409.64 50.72)">CO</text>
      <text class="cls-27" transform="translate(418.85 52.76) scale(0.58)">
        2
      </text>
      <circle class="cls-25" cx="403.97" cy="59.19" r="5.66" />
      <text class="cls-28" transform="translate(400.19 60.64)">CO</text>
      <text class="cls-28" transform="translate(406.54 62.05) scale(0.58)">
        2
      </text>
      <path
        class="cls-25"
        d="M436.13,68.1a.65.65,0,0,1,0-.39,6,6,0,0,0,.2-3.34,6.27,6.27,0,0,0-6.34-5,.42.42,0,0,1-.4-.19,6.29,6.29,0,0,0-11.19,2,.53.53,0,0,1-.15.26,7,7,0,0,0-2.65,5.21.37.37,0,0,1-.24.36,5.46,5.46,0,0,0-3,5.46c0,.38.2.53.62.57a.09.09,0,0,1,.06-.1.57.57,0,0,0,.34-.65,4.53,4.53,0,0,1,.44-2.32,4.47,4.47,0,0,1,2.32-2.17.76.76,0,0,0,.54-.79A6.09,6.09,0,0,1,426,61.84a5.69,5.69,0,0,1,1.93,2,.73.73,0,0,0,.83.38,4.55,4.55,0,0,1,1.76.11.8.8,0,0,0,.94-.25h0a.55.55,0,0,0-.44-.7,6.41,6.41,0,0,0-2.09-.2.3.3,0,0,1-.31-.15,7,7,0,0,0-5.19-3.12,6.74,6.74,0,0,0-3.29.43l-.2.07h-.05a4.63,4.63,0,0,1,1.32-1.61,5.16,5.16,0,0,1,7.64,1.39.71.71,0,0,0,.74.39,5.06,5.06,0,0,1,4,1.28,5.16,5.16,0,0,1,1.7,4.54c-.26-.31-.46-.61-.71-.88a7.35,7.35,0,0,0-1.71-1.38.57.57,0,0,0-.89.17s0,0,0,0a.85.85,0,0,0,.52.8,5.93,5.93,0,0,1,2.83,4.47,6.09,6.09,0,0,1-5.24,6.77,7,7,0,0,1-1,.07H418a4.65,4.65,0,0,1-3.19-1.15.57.57,0,0,0-.64-.13.29.29,0,0,1-.2,0c-.19.35-.17.58.08.81a5.21,5.21,0,0,0,3.54,1.43c3.89,0,7.78,0,11.68,0a7.11,7.11,0,0,0,6.84-9.31Z"
      />
      <path
        class="cls-25"
        d="M414.19,75.12a.57.57,0,0,1,.64.13A4.65,4.65,0,0,0,418,76.4h11.1a7,7,0,0,0,1-.07,6.09,6.09,0,0,0,5.24-6.77,5.93,5.93,0,0,0-2.83-4.47.85.85,0,0,1-.52-.8s0,0,0,0,0,0,0,0a.66.66,0,0,0,.38.78,6,6,0,0,1-3.18,11.25c-1.65,0-3.29,0-4.94,0h-6.32a4.43,4.43,0,0,1-3.08-1.14c-.31-.27-.51-.27-.87,0A.29.29,0,0,0,414.19,75.12Z"
      />
      <path
        class="cls-25"
        d="M413.42,72.29a5,5,0,0,1,0-.87,4.35,4.35,0,0,1,2.82-3.61.59.59,0,0,0,.45-.68,6.45,6.45,0,0,1,.21-1.75,6,6,0,0,1,7-4.32,5.94,5.94,0,0,1,4,2.81.67.67,0,0,0,.72.41,5.81,5.81,0,0,1,2.12.12.56.56,0,0,0,.74-.32s0,0,0,0h0a.8.8,0,0,1-.94.25,4.55,4.55,0,0,0-1.76-.11.73.73,0,0,1-.83-.38,5.69,5.69,0,0,0-1.93-2A6.09,6.09,0,0,0,416.65,67a.76.76,0,0,1-.54.79A4.47,4.47,0,0,0,413.79,70a4.53,4.53,0,0,0-.44,2.32.57.57,0,0,1-.34.65.09.09,0,0,0-.06.1C413.36,72.86,413.43,72.75,413.42,72.29Z"
      />
      <path
        class="cls-25"
        d="M413.79,73.83a.47.47,0,0,0-.49-.25c-.07,0-.13,0-.19,0a.78.78,0,0,0-.25.29.57.57,0,0,0,.08.56.58.58,0,0,0,.68.16c0-.08.06-.13.11-.19A.45.45,0,0,0,413.79,73.83Z"
      />
      <path
        class="cls-25"
        d="M413.83,73.75c-.14-.22-.36-.28-.72-.2.06.06.12,0,.19,0a.47.47,0,0,1,.49.25.45.45,0,0,1-.06.54c-.05.06-.12.11-.11.19C413.94,74.29,414,74,413.83,73.75Z"
      />
      <path class="cls-25" d="M432,64.29s0,0,0,0h0S432,64.28,432,64.29Z" />
      <line class="cls-29" x1="400.59" y1="92.63" x2="452.12" y2="92.63" />
      <path
        class="cls-25"
        d="M444.28,57.54l-1.83-.95a.38.38,0,0,0-.57.19l-.9,1.78a.44.44,0,0,0-.06.16.33.33,0,0,0,.13.36c.19.12.33.13.46,0a.7.7,0,0,0,.15-.19l.51-1,.07.19c0,.06,0,.13.05.18a7.78,7.78,0,0,1,.43,3.24,4.09,4.09,0,0,1-.48,1.64,4,4,0,0,1-.27.39,1.93,1.93,0,0,0-2.28-1.84A1.85,1.85,0,0,0,438.22,64,1.91,1.91,0,0,0,441,65.2c-.12.23-.23.44-.35.64a4.17,4.17,0,0,1-.88,1.08,9.42,9.42,0,0,1-.86.67,5.82,5.82,0,0,1-1.58.78.41.41,0,0,0-.3.46.38.38,0,0,0,.51.27,7.46,7.46,0,0,0,2.67-1.55,5.74,5.74,0,0,0,1.13-1.37,4.55,4.55,0,0,0,.57-1.41.46.46,0,0,1,.14-.2c.17-.18.36-.34.51-.53a4.08,4.08,0,0,0,.83-1.79,6.33,6.33,0,0,0,.12-1.79A9.71,9.71,0,0,0,443,58c0-.11-.06-.22-.1-.35l1.06.54a.37.37,0,0,0,.52-.15A.36.36,0,0,0,444.28,57.54ZM441,64.37a2.56,2.56,0,0,1-.94.28A1.09,1.09,0,0,1,439,63.31a1.12,1.12,0,0,1,1.84-.61,1.43,1.43,0,0,1,.42.9c0,.12,0,.23,0,.35S441.16,64.28,441,64.37Z"
      />
      <path
        class="cls-25"
        d="M436.86,48.78a.56.56,0,0,1,.61-.37c.41,0,.82,0,1.23,0a.48.48,0,0,1,.51.56.47.47,0,0,1-.47.4c-.47,0-.93,0-1.4,0a.49.49,0,0,1-.48-.37Z"
      />
      <path
        class="cls-25"
        d="M443.67,55.81a.56.56,0,0,1-.37-.61c0-.41,0-.82,0-1.23a.49.49,0,0,1,.56-.51.47.47,0,0,1,.4.47c0,.47,0,.94,0,1.4a.51.51,0,0,1-.37.48Z"
      />
      <path
        class="cls-25"
        d="M444.26,43.15v.66a.48.48,0,1,1-1,0V42.49a.48.48,0,1,1,1,0Z"
      />
      <path
        class="cls-25"
        d="M449.53,48.41h.65a.5.5,0,0,1,.52.48.48.48,0,0,1-.52.48c-.44,0-.88,0-1.31,0a.49.49,0,0,1-.53-.48.5.5,0,0,1,.53-.48Z"
      />
      <path
        class="cls-25"
        d="M448.31,43.86a.51.51,0,0,1,.46.25.45.45,0,0,1,0,.46.48.48,0,0,1-.09.11c-.32.33-.64.65-1,1a.46.46,0,0,1-.72,0,.44.44,0,0,1,0-.57c.35-.36.71-.72,1.08-1.07A.67.67,0,0,1,448.31,43.86Z"
      />
      <path
        class="cls-25"
        d="M440.68,52.52a1,1,0,0,1-.15.25c-.32.35-.66.68-1,1a.45.45,0,0,1-.65,0,.46.46,0,0,1,0-.67c.33-.34.67-.68,1-1a.45.45,0,0,1,.53-.09A.5.5,0,0,1,440.68,52.52Z"
      />
      <path
        class="cls-25"
        d="M440.7,45.32a.5.5,0,0,1-.3.44.42.42,0,0,1-.5-.07l-.53-.52-.5-.51a.47.47,0,0,1,.36-.79.5.5,0,0,1,.27.11c.36.35.72.7,1.06,1.06A1,1,0,0,1,440.7,45.32Z"
      />
      <path
        class="cls-25"
        d="M448.81,53.49a.47.47,0,0,1-.28.39.44.44,0,0,1-.51-.09c-.24-.23-.46-.46-.69-.69l-.33-.33a.47.47,0,0,1,.67-.65l1,1A.49.49,0,0,1,448.81,53.49Z"
      />
      <path
        class="cls-25"
        d="M443.79,45.41a3.49,3.49,0,1,0,3.47,3.49A3.5,3.5,0,0,0,443.79,45.41Zm0,6a2.52,2.52,0,1,1,2.51-2.52A2.49,2.49,0,0,1,443.79,51.41Z"
      />
      <path
        class="cls-25"
        d="M422.64,89.62l-1.92-2.41h1.09a.14.14,0,0,0,.14-.14V74.44h1.39V87.07a.13.13,0,0,0,.13.14h1.1Z"
      />
      <path
        class="cls-25"
        d="M430.46,71.88l2.67,1.54-1,.4A.14.14,0,0,0,432,74l6.06,15-1.29.5-6.06-15a.13.13,0,0,0-.18-.08l-1,.4Z"
      />
      <circle class="cls-24" cx="250.28" cy="254.29" r="37.01" />
      <path
        class="cls-25"
        d="M256,238.19l2.2-5a22.87,22.87,0,0,0-17.07.4,22.45,22.45,0,0,0-12,11.94l5.1,1.89A17.7,17.7,0,0,1,256,238.19Z"
      />
      <path
        class="cls-25"
        d="M247.5,277.62l.32-5.44A17.62,17.62,0,0,1,232.66,254l-5.42-.65a22.89,22.89,0,0,0,5.51,16.39A22.29,22.29,0,0,0,247.5,277.62Z"
      />
      <path
        class="cls-25"
        d="M256.39,278.25c3.7-.86,6.1-3.62,9.07-6.21l1.28-1.11.81,1.49a3.63,3.63,0,0,1,.22.42l1.29,2.07c.3.71.6,1.41.92,2.11.14.32.28.34.47.33s.59-.08.61-.63c.21-5.22,0-10.54,1.34-14.41a.81.81,0,0,0,0-.37c-.06-.19-.14-.43-.86-.31l-.53.09c-1.55.27-3.16.55-4.78.74a45.19,45.19,0,0,1-7.86.08.53.53,0,0,0-.63.41.51.51,0,0,0,.3.66c.78.47,1.59.9,2.39,1.34.25.13.51.25.79.37l2.31,1.09L262,267.78a17.43,17.43,0,0,1-7.44,4Z"
      />
      <path
        class="cls-25"
        d="M267,249.68l5.35-1.18a22.78,22.78,0,0,0-7.17-11.21l-3.32,4.36A17.57,17.57,0,0,1,267,249.68Z"
      />
      <path
        class="cls-25"
        d="M262.12,251.33a27.5,27.5,0,0,0-4-.69,9.34,9.34,0,0,0-4.38.53,3.89,3.89,0,0,0-1.43,1,5.29,5.29,0,0,0-.85,1.38,6.13,6.13,0,0,0-.48,3.3.91.91,0,0,1,0,.57,4.46,4.46,0,0,1-.61.62,16.1,16.1,0,0,0-1.16,1.32c-.42.56-.78,1.17-1.19,1.78a.44.44,0,0,1,0-.15c0-1,.1-2.09.06-3.13,0-.86-.21-1.71-.33-2.56a.3.3,0,0,1,.14-.33,2.94,2.94,0,0,0,.64-.63,9.65,9.65,0,0,0,.89-1.64,5.68,5.68,0,0,0,.31-3.29,4.6,4.6,0,0,0-1.76-2.63,9.63,9.63,0,0,0-2.28-1.38c-.7-.3-1.41-.58-2.14-.83s-1.48-.44-2.22-.65a.58.58,0,0,0-.82.47c-.11.44-.21.89-.3,1.33a18.35,18.35,0,0,0-.48,4.3,7.4,7.4,0,0,0,.66,3.07,3.73,3.73,0,0,0,1.1,1.41,7.79,7.79,0,0,0,1.35.76,5.86,5.86,0,0,0,3.67.36c.19,0,.24,0,.26.17.09.84.23,1.67.25,2.51a21.47,21.47,0,0,1-.09,2.78c-.12,1.14-1.65,6.93-1.84,8.05-.11.7-.3,1.37-.43,2.07a.51.51,0,0,0,.42.66.54.54,0,0,0,.61-.45c.24-.76.43-1.54.73-2.29.37-.94,2.14-6.53,2.62-7.43a16.1,16.1,0,0,1,1.29-1.92c.35-.48.77-.91,1.15-1.34a9.45,9.45,0,0,0,1,1,5.82,5.82,0,0,0,2.13,1A4.74,4.74,0,0,0,259.7,259a10.67,10.67,0,0,0,1.66-2.72,28.54,28.54,0,0,0,1.34-4C262.85,251.69,262.6,251.44,262.12,251.33Zm-16.35-.47c-.32-.44-.69-.84-1-1.25a2.56,2.56,0,0,1-.2-.26.55.55,0,0,0-.73-.19.51.51,0,0,0-.17.74,5.15,5.15,0,0,0,.53.7,8.69,8.69,0,0,1,1.61,2.41c.19.42.33.86.51,1.29.09.23,0,.31-.23.35a5.5,5.5,0,0,1-2.14-.1,4.15,4.15,0,0,1-2.19-1.21,3.46,3.46,0,0,1-.49-.75,7.42,7.42,0,0,1-.49-3.7,21.44,21.44,0,0,1,.56-3.56c0-.21.14-.22.28-.18a21,21,0,0,1,4.08,1.51,6.48,6.48,0,0,1,2.44,2,3.23,3.23,0,0,1,.55,2.21,5.51,5.51,0,0,1-.84,2.55c-.13.2-.29.38-.49.64A10.76,10.76,0,0,0,245.77,250.86Zm15.74,1.67a23.32,23.32,0,0,1-1.3,3.71,8.76,8.76,0,0,1-1.44,2.21,3.43,3.43,0,0,1-3.18,1.13,5.39,5.39,0,0,1-2.23-.77,6.49,6.49,0,0,1-1-.85c-.14-.13-.11-.26.05-.38a9.83,9.83,0,0,1,2.35-1.3c.75-.27,1.51-.47,2.27-.69a.52.52,0,0,0,.43-.66.55.55,0,0,0-.68-.38,12,12,0,0,0-4.71,2,.39.39,0,0,1-.13.06,5.68,5.68,0,0,1,.7-3.09A3.16,3.16,0,0,1,254.5,252a8.5,8.5,0,0,1,3.78-.28c1,.11,2,.35,3.06.52C261.52,252.29,261.56,252.34,261.51,252.53Z"
      />
    </g>
  </g>
</svg>
