<?xml version="1.0" encoding="UTF-8"?>
<svg xmlns="http://www.w3.org/2000/svg" viewBox="0 0 800 800">
  <defs>
    <linearGradient id="g1" x1="0%" y1="0%" x2="100%" y2="100%">
      <stop offset="0%" stop-color="#10b981"/>
      <stop offset="100%" stop-color="#059669"/>
    </linearGradient>
    <linearGradient id="g2" x1="0%" y1="0%" x2="100%" y2="100%">
      <stop offset="0%" stop-color="#86efac"/>
      <stop offset="100%" stop-color="#10b981"/>
    </linearGradient>
    <linearGradient id="g3" x1="0%" y1="0%" x2="100%" y2="100%">
      <stop offset="0%" stop-color="#6ee7b7"/>
      <stop offset="100%" stop-color="#059669"/>
    </linearGradient>
    <marker id="arrow" markerWidth="10" markerHeight="10" refX="9" refY="3" orient="auto">
      <polygon points="0 0, 10 3, 0 6" fill="#10b981"/>
    </marker>
  </defs>
  
  <circle cx="400" cy="400" r="350" fill="none" stroke="#E1EACD" stroke-width="2" opacity="0.3"/>
  <circle cx="400" cy="400" r="320" fill="none" stroke="url(#g1)" stroke-width="3" stroke-dasharray="20 10" opacity="0.5"/>
  <circle cx="400" cy="400" r="280" fill="none" stroke="url(#g2)" stroke-width="2" stroke-dasharray="15 15" opacity="0.4"/>
  <circle cx="400" cy="400" r="240" fill="none" stroke="url(#g3)" stroke-width="2" stroke-dasharray="10 20" opacity="0.3"/>
  
  <circle cx="400" cy="400" r="80" fill="url(#g1)" opacity="0.9"/>
  <text x="400" y="395" text-anchor="middle" fill="white" font-size="18" font-weight="bold">PLA</text>
  <text x="400" y="415" text-anchor="middle" fill="white" font-size="14">Circular</text>
  <text x="400" y="430" text-anchor="middle" fill="white" font-size="14">Economy</text>
  
  <path d="M 400 120 A 280 280 0 0 1 595 205" fill="none" stroke="#10b981" stroke-width="3" marker-end="url(#arrow)" opacity="0.6"/>
  <path d="M 595 205 A 280 280 0 0 1 680 400" fill="none" stroke="#10b981" stroke-width="3" marker-end="url(#arrow)" opacity="0.6"/>
  <path d="M 680 400 A 280 280 0 0 1 595 595" fill="none" stroke="#10b981" stroke-width="3" marker-end="url(#arrow)" opacity="0.6"/>
  <path d="M 595 595 A 280 280 0 0 1 400 680" fill="none" stroke="#10b981" stroke-width="3" marker-end="url(#arrow)" opacity="0.6"/>
  <path d="M 400 680 A 280 280 0 0 1 205 595" fill="none" stroke="#10b981" stroke-width="3" marker-end="url(#arrow)" opacity="0.6"/>
  <path d="M 205 595 A 280 280 0 0 1 120 400" fill="none" stroke="#10b981" stroke-width="3" marker-end="url(#arrow)" opacity="0.6"/>
  <path d="M 120 400 A 280 280 0 0 1 205 205" fill="none" stroke="#10b981" stroke-width="3" marker-end="url(#arrow)" opacity="0.6"/>
  <path d="M 205 205 A 280 280 0 0 1 400 120" fill="none" stroke="#10b981" stroke-width="3" marker-end="url(#arrow)" opacity="0.6"/>
  
  <g>
    <circle cx="400" cy="100" r="60" fill="url(#g2)" stroke="white" stroke-width="3"/>
    <path d="M 400 70 Q 390 85 400 100 Q 410 85 400 70 M 395 85 Q 390 90 395 95 M 405 85 Q 410 90 405 95" fill="none" stroke="white" stroke-width="2.5" stroke-linecap="round"/>
    <line x1="400" y1="100" x2="400" y2="115" stroke="white" stroke-width="2.5" stroke-linecap="round"/>
    <text x="400" y="145" text-anchor="middle" fill="#059669" font-size="14" font-weight="600">Renewable</text>
    <text x="400" y="160" text-anchor="middle" fill="#059669" font-size="14" font-weight="600">Resources</text>
  </g>
  
  <g>
    <circle cx="565" cy="235" r="55" fill="url(#g3)" stroke="white" stroke-width="3"/>
    <ellipse cx="565" cy="235" rx="15" ry="25" fill="none" stroke="white" stroke-width="2.5"/>
    <line x1="555" y1="225" x2="575" y2="225" stroke="white" stroke-width="2"/>
    <line x1="555" y1="235" x2="575" y2="235" stroke="white" stroke-width="2"/>
    <line x1="555" y1="245" x2="575" y2="245" stroke="white" stroke-width="2"/>
    <text x="565" y="305" text-anchor="middle" fill="#059669" font-size="14" font-weight="600">Corn/</text>
    <text x="565" y="320" text-anchor="middle" fill="#059669" font-size="14" font-weight="600">Sugarcane</text>
  </g>
  
  <g>
    <circle cx="700" cy="400" r="60" fill="url(#g1)" stroke="white" stroke-width="3"/>
    <rect x="680" y="390" width="40" height="25" fill="none" stroke="white" stroke-width="2.5" rx="2"/>
    <rect x="690" y="375" width="8" height="15" fill="white"/>
    <rect x="702" y="375" width="8" height="15" fill="white"/>
    <circle cx="694" cy="370" r="3" fill="white"/>
    <circle cx="706" cy="368" r="2.5" fill="white"/>
    <text x="700" y="445" text-anchor="middle" fill="#059669" font-size="14" font-weight="600">PLA</text>
    <text x="700" y="460" text-anchor="middle" fill="#059669" font-size="14" font-weight="600">Manufacturing</text>
  </g>
  
  <g>
    <circle cx="565" cy="565" r="55" fill="url(#g2)" stroke="white" stroke-width="3"/>
    <rect x="545" y="550" width="40" height="30" fill="none" stroke="white" stroke-width="2.5" rx="3"/>
    <line x1="545" y1="560" x2="585" y2="560" stroke="white" stroke-width="2"/>
    <line x1="565" y1="550" x2="565" y2="580" stroke="white" stroke-width="2"/>
    <text x="565" y="620" text-anchor="middle" fill="#059669" font-size="14" font-weight="600">PLA</text>
    <text x="565" y="635" text-anchor="middle" fill="#059669" font-size="14" font-weight="600">Products</text>
  </g>
  
  <g>
    <circle cx="400" cy="700" r="60" fill="url(#g3)" stroke="white" stroke-width="3"/>
    <path d="M 400 680 L 410 690 L 405 695 M 400 680 Q 415 680 420 690 M 420 690 L 415 695" fill="none" stroke="white" stroke-width="2.5" stroke-linecap="round" stroke-linejoin="round"/>
    <path d="M 400 720 L 390 710 L 395 705 M 400 720 Q 385 720 380 710 M 380 710 L 385 705" fill="none" stroke="white" stroke-width="2.5" stroke-linecap="round" stroke-linejoin="round"/>
    <text x="400" y="745" text-anchor="middle" fill="#059669" font-size="14" font-weight="600">End of Life</text>
    <text x="400" y="760" text-anchor="middle" fill="#059669" font-size="14" font-weight="600">Solutions</text>
  </g>
  
  <g>
    <circle cx="235" cy="565" r="55" fill="url(#g1)" stroke="white" stroke-width="3"/>
    <path d="M 220 570 Q 235 555 250 570" fill="none" stroke="white" stroke-width="2.5" stroke-linecap="round"/>
    <circle cx="225" cy="565" r="2" fill="white"/>
    <circle cx="235" cy="560" r="2.5" fill="white"/>
    <circle cx="245" cy="565" r="2" fill="white"/>
    <line x1="220" y1="575" x2="250" y2="575" stroke="white" stroke-width="2.5" stroke-linecap="round"/>
    <text x="235" y="620" text-anchor="middle" fill="#059669" font-size="14" font-weight="600">Composting</text>
    <text x="235" y="635" text-anchor="middle" fill="#059669" font-size="14" font-weight="600">&amp; Recycling</text>
  </g>
  
  <g>
    <circle cx="100" cy="400" r="60" fill="url(#g2)" stroke="white" stroke-width="3"/>
    <path d="M 105 380 L 95 400 L 105 400 L 95 420" fill="none" stroke="white" stroke-width="3" stroke-linecap="round" stroke-linejoin="round"/>
    <circle cx="100" cy="390" r="3" fill="white"/>
    <circle cx="100" cy="410" r="3" fill="white"/>
    <text x="100" y="445" text-anchor="middle" fill="#059669" font-size="14" font-weight="600">Energy</text>
    <text x="100" y="460" text-anchor="middle" fill="#059669" font-size="14" font-weight="600">Recovery</text>
  </g>
  
  <g>
    <circle cx="235" cy="235" r="55" fill="url(#g3)" stroke="white" stroke-width="3"/>
    <circle cx="235" cy="235" r="8" fill="white"/>
    <circle cx="220" cy="235" r="6" fill="none" stroke="white" stroke-width="2"/>
    <circle cx="250" cy="235" r="6" fill="none" stroke="white" stroke-width="2"/>
    <text x="235" y="295" text-anchor="middle" fill="#059669" font-size="14" font-weight="600">CO₂</text>
    <text x="235" y="310" text-anchor="middle" fill="#059669" font-size="14" font-weight="600">Capture</text>
  </g>
</svg>
